<?xml version="1.0" encoding="utf-8"?>
<!-- Generator: Adobe Illustrator 25.0.0, SVG Export Plug-In . SVG Version: 6.00 Build 0)  -->
<svg version="1.1" xmlns="http://www.w3.org/2000/svg" xmlns:xlink="http://www.w3.org/1999/xlink" x="0px" y="0px"
	 viewBox="0 0 750 500" style="enable-background:new 0 0 750 500;" xml:space="preserve">
<style type="text/css">
	.st0{fill-rule:evenodd;clip-rule:evenodd;fill:#FAE5EE;}
	.st1{fill-rule:evenodd;clip-rule:evenodd;fill:#DBEDFC;}
	.st2{fill-rule:evenodd;clip-rule:evenodd;fill:#28C76F;}
	.st3{fill-rule:evenodd;clip-rule:evenodd;fill:#97FFA8;}
	.st4{fill-rule:evenodd;clip-rule:evenodd;fill:#086D31;}
	.st5{fill-rule:evenodd;clip-rule:evenodd;fill:#0972DB;}
	.st6{fill-rule:evenodd;clip-rule:evenodd;fill:#DCD7EB;}
	.st7{fill-rule:evenodd;clip-rule:evenodd;fill:#CFC4E0;}
	.st8{fill-rule:evenodd;clip-rule:evenodd;fill:#0C1332;}
	.st9{fill-rule:evenodd;clip-rule:evenodd;fill:#242B5C;}
	.st10{fill-rule:evenodd;clip-rule:evenodd;fill:#FFFFFF;}
	.st11{fill-rule:evenodd;clip-rule:evenodd;fill:#151F42;}
	.st12{fill-rule:evenodd;clip-rule:evenodd;fill:#E74862;}
	.st13{fill-rule:evenodd;clip-rule:evenodd;fill:#F0EEF6;}
	.st14{fill-rule:evenodd;clip-rule:evenodd;fill:#EABA21;}
	.st15{fill-rule:evenodd;clip-rule:evenodd;fill:#2BA4EF;}
	.st16{fill-rule:evenodd;clip-rule:evenodd;fill:#F6D6E0;}
	.st17{fill-rule:evenodd;clip-rule:evenodd;fill:#382982;}
	.st18{fill-rule:evenodd;clip-rule:evenodd;fill:#4A3B93;}
	.st19{fill-rule:evenodd;clip-rule:evenodd;fill:#F2B9C7;}
	.st20{fill-rule:evenodd;clip-rule:evenodd;fill:#ED859C;}
	.st21{fill-rule:evenodd;clip-rule:evenodd;fill:#18214C;}
	.st22{fill-rule:evenodd;clip-rule:evenodd;fill:#EA8CAD;}
	.st23{fill-rule:evenodd;clip-rule:evenodd;fill:#1A274C;}
	.st24{fill-rule:evenodd;clip-rule:evenodd;fill:#075B8E;}
	.st25{fill-rule:evenodd;clip-rule:evenodd;fill:#C7E56C;}
	.st26{fill-rule:evenodd;clip-rule:evenodd;fill:#F4BD5B;}
	.st27{fill-rule:evenodd;clip-rule:evenodd;fill:#DCE7F5;}
	.st28{fill-rule:evenodd;clip-rule:evenodd;fill:#FC9090;}
	.st29{fill-rule:evenodd;clip-rule:evenodd;fill:#BD3F65;}
	.st30{fill-rule:evenodd;clip-rule:evenodd;fill:#01051A;}
	.st31{fill-rule:evenodd;clip-rule:evenodd;fill:#F1A1B0;}
	.st32{fill-rule:evenodd;clip-rule:evenodd;fill:#1D68D6;}
</style>
<g id="OBJECTS">
	<path class="st0" d="M283.6,341.9c0,0-1.6,0.3-1.7,1.5c-0.1,1.2-0.2,1.6-0.2,2.4c-0.1,0.8,1.7,1.8,4.4,2.1
		c2.7,0.3,8.2,0.4,13.2-2.9c5-3.3,19.2-22.2,25.5-33c0,0,0.8-2.4-0.6-3.8c-1.5-1.5-2.1-1.8-2.5-2.1c-0.5-0.3-1.6-0.1-1.6-0.1
		s1.2,0.8-0.4,3.4c-1.6,2.6-7.6,13.8-11.4,20.7c-3.8,6.9-10.4,12.6-16.8,13.3c-6.4,0.7-7.9,0.1-7.9,0.1S283.4,343,283.6,341.9z"/>
	<path class="st1" d="M584,440.4c156.1-123.6-26.2-257.9-103.3-175.5C558.4-0.7,74-21,183.8,261c0,0-185.9,6.2-72.3,170.1L584,440.4
		L584,440.4z M142,193.1c8.9,43.7-25.3,65.7-50.1,66.4c-15.6,0.4-23.8-8.2-24.8-18.5c-1.8-19.7,14.5-27.3,30-31.6
		c8-2.2,15.8-5.3,18.9-14.4C122.9,174.7,137,168.8,142,193.1L142,193.1z M600.8,434.5c0,0,57.7-31.7,52.9-103.9c0,0-0.2-1.9,1.1-1.9
		c1.3-0.1,21.3,58.2-21.2,101.3L600.8,434.5z"/>
	<g>
		<path class="st2" d="M184.9,266.6c-20.5-20.8-35.7,5.6-33.5,32.2c2,25.2,23.7,111.6,19.7,147.9h8.3
			C199.7,400.1,211.1,293.3,184.9,266.6z"/>
		<path class="st3" d="M176.3,446.7c19.8-73.5-5.3-175-5.3-175.3c-0.2-0.6-0.8-1-1.4-0.9c-0.6,0.2-1,0.8-0.9,1.4
			c0.1,0.3,25.2,102,5.2,174.8H176.3z"/>
	</g>
	<g>
		<path class="st3" d="M134.4,312.5c-21.6-11.4-27,13.5-18.6,34.1c7,17.1,37.7,67.6,49.4,100.1h11
			C177.1,401.9,159.9,326,134.4,312.5z"/>
		<path class="st4" d="M172.2,446.7c-7.1-60.7-47.5-126.6-47.6-126.9c-0.3-0.5-0.9-0.6-1.3-0.3c-0.5,0.3-0.6,0.9-0.3,1.3
			c0.1,0.2,40.2,65.8,47.4,125.9H172.2z"/>
	</g>
	<g>
		<path class="st3" d="M225.5,341.3c20.9-9.1,24.2,14.5,14.9,33.1c-6.3,12.6-28.9,44.9-44.2,72.3h-17.4
			C184.9,405.2,203.9,350.8,225.5,341.3z"/>
		<path class="st4" d="M185.1,446.7c14.8-50.3,49-97.7,49.1-97.9c0.3-0.4,0.9-0.5,1.3-0.2c0.4,0.3,0.5,0.9,0.2,1.3
			c-0.1,0.2-33.9,47.1-48.7,96.8H185.1z"/>
	</g>
	<g>
		<path class="st2" d="M530.3,309.3c17.9-14.2,30,4.8,27.5,23.4c-2.4,17.7-23.2,77.9-20.8,103.6l-7-0.2
			C514.1,402.8,507.4,327.4,530.3,309.3z"/>
		<path class="st3" d="M532.6,436.1c-14.7-52.1,9.4-123,9.4-123.2c0.1-0.4,0.7-0.7,1.2-0.6c0.5,0.1,0.8,0.6,0.7,1
			c-0.1,0.2-24.1,71.1-9.3,122.8L532.6,436.1z"/>
	</g>
	<g>
		<path class="st3" d="M571.7,342.7c18.5-7.5,22.4,10.1,14.8,24.4c-6.4,11.9-33.8,46.7-44.6,69.2l-9.3-0.3
			C533.1,404.6,549.8,351.6,571.7,342.7z"/>
		<path class="st4" d="M536,436.2c7.7-42.5,43.7-88,43.8-88.1c0.3-0.3,0.8-0.4,1.2-0.2c0.4,0.2,0.5,0.6,0.2,1
			c-0.1,0.2-35.9,45.3-43.6,87.4L536,436.2z"/>
	</g>
	<g>
		<path class="st3" d="M493.9,360.9c-17.4-6.9-20.9,9.6-13.5,22.9c5,9,23.2,32.2,35.3,51.9l14.7,0.4
			C526.5,406.7,511.9,368,493.9,360.9z"/>
		<path class="st4" d="M525.1,435.9c-11.1-35.7-38.7-69.9-38.8-70c-0.2-0.3-0.7-0.4-1.1-0.2c-0.4,0.2-0.5,0.6-0.2,0.9
			c0.1,0.1,27.4,33.9,38.5,69.2L525.1,435.9z"/>
	</g>
	<path class="st5" d="M72.8,428.2h591.9c3.9,0,7.1,3.2,7.1,7.1v0c0,3.9-3.2,7.1-7.1,7.1h-23.8c-2.2,0-3.9,1.8-3.9,3.9v0
		c0,2.2,1.8,3.9,3.9,3.9h8.7c2.7,0,4.9,2.2,4.9,4.9l0,0c0,2.7-2.2,4.9-4.9,4.9H88.7c-2.7,0-4.9-2.2-4.9-4.9l0,0
		c0-2.7,2.2-4.9,4.9-4.9h6.9c2.2,0,3.9-1.8,3.9-3.9v0c0-2.2-1.8-3.9-3.9-3.9H72.8c-3.9,0-7.1-3.2-7.1-7.1v0
		C65.8,431.4,68.9,428.2,72.8,428.2L72.8,428.2z M76.5,460c2.6,0,4.7-2.1,4.7-4.7v-0.4c0-2.6-2.1-4.7-4.7-4.7l0,0
		c-2.6,0-4.7,2.1-4.7,4.7v0.4C71.8,457.9,73.9,460,76.5,460L76.5,460z"/>
	<g>
		<path class="st6" d="M505.3,216.4L505.3,216.4c3,0,5.4,2.4,5.4,5.4v8.4c0,3-2.4,5.4-5.4,5.4h0c-3,0-5.4-2.4-5.4-5.4v-8.4
			C499.9,218.8,502.4,216.4,505.3,216.4z"/>
		<path class="st6" d="M496.1,216.4h18.4c2.4,0,4.3,2,4.3,4.3l0,0c0,2.4-2,4.3-4.3,4.3h-18.4c-2.4,0-4.3-2-4.3-4.3l0,0
			C491.8,218.4,493.7,216.4,496.1,216.4z"/>
		<path class="st7" d="M507.7,304c20.5,0,37.1-16.7,37.1-37.1c0-20.4-16.7-37.1-37.1-37.1c-20.4,0-37.1,16.7-37.1,37.1
			C470.5,287.3,487.2,304,507.7,304z"/>
		<g>
			<path class="st8" d="M526,225.7L526,225.7c1.6,0.9,2.1,3,1.2,4.6l-2.6,4.5c-0.9,1.6-3,2.1-4.6,1.2h0c-1.6-0.9-2.1-3-1.2-4.6
				l2.6-4.5C522.4,225.3,524.4,224.8,526,225.7z"/>
			<path class="st9" d="M521.1,222.8l9.8,5.7c1.3,0.7,1.7,2.4,1,3.7l0,0c-0.7,1.3-2.4,1.7-3.7,1l-9.8-5.7c-1.3-0.7-1.7-2.4-1-3.7
				l0,0C518.2,222.5,519.8,222.1,521.1,222.8z"/>
			<path class="st8" d="M479,225.7L479,225.7c-1.6,0.9-2.1,3-1.2,4.6l2.6,4.5c0.9,1.6,3,2.1,4.6,1.2l0,0c1.6-0.9,2.1-3,1.2-4.6
				l-2.6-4.5C482.6,225.3,480.6,224.8,479,225.7z"/>
			<path class="st9" d="M483.9,222.8l-9.8,5.7c-1.3,0.7-1.7,2.4-1,3.7l0,0c0.7,1.3,2.4,1.7,3.7,1l9.8-5.7c1.3-0.7,1.7-2.4,1-3.7l0,0
				C486.8,222.5,485.2,222.1,483.9,222.8z"/>
		</g>
		<path class="st8" d="M502.5,216.2L502.5,216.2c2.7,0,4.8,2.2,4.8,4.8v7.5c0,2.7-2.2,4.8-4.8,4.8l0,0c-2.7,0-4.8-2.2-4.8-4.8V221
			C497.7,218.4,499.8,216.2,502.5,216.2z"/>
		<path class="st9" d="M502.5,301.5c20.4,0,37.1-16.7,37.1-37.1c0-20.4-16.7-37.1-37.1-37.1c-20.4,0-37.1,16.7-37.1,37.1
			C465.4,284.8,482,301.5,502.5,301.5z"/>
		<path class="st10" d="M502.5,293.4c16,0,29.1-13.1,29.1-29.1c0-16-13.1-29.1-29.1-29.1c-16,0-29.1,13.1-29.1,29.1
			C473.4,280.3,486.5,293.4,502.5,293.4z"/>
		<path class="st9" d="M494.3,216.2h16.4c2.1,0,3.9,1.7,3.9,3.9l0,0c0,2.1-1.7,3.9-3.9,3.9h-16.4c-2.1,0-3.9-1.7-3.9-3.9l0,0
			C490.4,217.9,492.1,216.2,494.3,216.2z"/>
		<g>
			<path class="st11" d="M502.5,238.3L502.5,238.3c0.6,0,1.1,0.5,1.1,1.1v1.7c0,0.6-0.5,1.1-1.1,1.1l0,0c-0.6,0-1.1-0.5-1.1-1.1
				v-1.7C501.4,238.8,501.9,238.3,502.5,238.3z"/>
			<path class="st11" d="M502.5,286.6L502.5,286.6c0.6,0,1.1,0.5,1.1,1.1v1.7c0,0.6-0.5,1.1-1.1,1.1l0,0c-0.6,0-1.1-0.5-1.1-1.1
				v-1.7C501.4,287,501.9,286.6,502.5,286.6z"/>
		</g>
		<g>
			<path class="st11" d="M520.9,245.9L520.9,245.9c0.4,0.4,0.4,1.1,0,1.5l-1.2,1.2c-0.4,0.4-1.1,0.4-1.5,0l0,0
				c-0.4-0.4-0.4-1.1,0-1.5l1.2-1.2C519.8,245.5,520.5,245.5,520.9,245.9z"/>
			<path class="st11" d="M486.8,280L486.8,280c0.4,0.4,0.4,1.1,0,1.5l-1.2,1.2c-0.4,0.4-1.1,0.4-1.5,0l0,0c-0.4-0.4-0.4-1.1,0-1.5
				l1.2-1.2C485.7,279.6,486.4,279.6,486.8,280z"/>
		</g>
		<g>
			<path class="st11" d="M528.5,264.3L528.5,264.3c0,0.6-0.5,1.1-1.1,1.1h-1.7c-0.6,0-1.1-0.5-1.1-1.1l0,0c0-0.6,0.5-1.1,1.1-1.1
				h1.7C528.1,263.3,528.5,263.8,528.5,264.3z"/>
			<path class="st11" d="M480.3,264.3L480.3,264.3c0,0.6-0.5,1.1-1.1,1.1h-1.7c-0.6,0-1.1-0.5-1.1-1.1l0,0c0-0.6,0.5-1.1,1.1-1.1
				h1.7C479.8,263.3,480.3,263.8,480.3,264.3z"/>
		</g>
		<g>
			<path class="st11" d="M520.9,282.8L520.9,282.8c-0.4,0.4-1.1,0.4-1.5,0l-1.2-1.2c-0.4-0.4-0.4-1.1,0-1.5l0,0
				c0.4-0.4,1.1-0.4,1.5,0l1.2,1.2C521.3,281.7,521.3,282.3,520.9,282.8z"/>
			<path class="st11" d="M486.8,248.6L486.8,248.6c-0.4,0.4-1.1,0.4-1.5,0l-1.2-1.2c-0.4-0.4-0.4-1.1,0-1.5l0,0
				c0.4-0.4,1.1-0.4,1.5,0l1.2,1.2C487.2,247.5,487.2,248.2,486.8,248.6z"/>
		</g>
		<path class="st12" d="M502.5,246.2L502.5,246.2c0.6,0,1.1,0.5,1.1,1.1v16.9c0,0.6-0.5,1.1-1.1,1.1l0,0c-0.6,0-1.1-0.5-1.1-1.1
			v-16.9C501.4,246.6,501.9,246.2,502.5,246.2z"/>
		<path class="st12" d="M489.6,277.2L489.6,277.2c-0.4-0.4-0.4-1.1,0-1.5l12-12c0.4-0.4,1.1-0.4,1.5,0l0,0c0.4,0.4,0.4,1.1,0,1.5
			l-12,12C490.7,277.6,490.1,277.6,489.6,277.2z"/>
	</g>
	<path class="st13" d="M499.8,87h-67.7c-4.9,0-8.9,4-8.9,8.9v42.7v2.7v23.5c0,0.4,0.2,0.8,0.6,0.9c0.4,0.2,0.8,0.1,1.1-0.2
		l15.2-15.2h59.7c4.9,0,8.9-4,8.9-8.9V95.9C508.8,91,504.7,87,499.8,87z"/>
	<path class="st14" d="M496,84.1h-67.7c-4.9,0-8.9,4-8.9,8.9v42.7v2.7V162c0,0.4,0.2,0.8,0.6,0.9c0.4,0.2,0.8,0.1,1.1-0.2l15.2-15.2
		H496c4.9,0,8.9-4,8.9-8.9V93.1C504.9,88.1,500.9,84.1,496,84.1z"/>
	<g>
		<path class="st10" d="M462.1,94.4c5.7,0,10.8,2.3,14.5,6c3.7,3.7,6,8.8,6,14.5s-2.3,10.8-6,14.5c-3.7,3.7-8.8,6-14.5,6
			c-5.7,0-10.8-2.3-14.5-6c-3.7-3.7-6-8.8-6-14.5s2.3-10.8,6-14.5C451.4,96.7,456.5,94.4,462.1,94.4L462.1,94.4z M475.4,101.6
			c-3.4-3.4-8.1-5.5-13.2-5.5c-5.2,0-9.8,2.1-13.2,5.5c-3.4,3.4-5.5,8.1-5.5,13.2c0,5.2,2.1,9.8,5.5,13.2c3.4,3.4,8.1,5.5,13.2,5.5
			c5.2,0,9.8-2.1,13.2-5.5c3.4-3.4,5.5-8.1,5.5-13.2C480.8,109.7,478.7,105,475.4,101.6z"/>
		<path class="st10" d="M462.1,100.2c-0.3,0-0.6-0.2-0.6-0.6v-1c0-0.3,0.2-0.6,0.6-0.6c0.3,0,0.6,0.2,0.6,0.6v1
			C462.7,100,462.4,100.2,462.1,100.2L462.1,100.2z M462.1,131.5c-0.3,0-0.6-0.2-0.6-0.6v-1c0-0.3,0.2-0.6,0.6-0.6
			c0.3,0,0.6,0.2,0.6,0.6v1C462.7,131.3,462.4,131.5,462.1,131.5L462.1,131.5z M469.4,102.2c-0.3-0.2-0.4-0.5-0.2-0.8l0.5-0.8
			c0.2-0.3,0.5-0.4,0.8-0.2c0.3,0.2,0.4,0.5,0.2,0.8l-0.5,0.8C470,102.2,469.7,102.3,469.4,102.2L469.4,102.2z M453.8,129.3
			c-0.3-0.2-0.4-0.5-0.2-0.8l0.5-0.8c0.2-0.3,0.5-0.4,0.8-0.2c0.3,0.2,0.4,0.5,0.2,0.8l-0.5,0.8
			C454.4,129.3,454.1,129.4,453.8,129.3L453.8,129.3z M474.8,107.5c-0.2-0.3-0.1-0.6,0.2-0.8l0.8-0.5c0.3-0.2,0.6-0.1,0.8,0.2
			c0.2,0.3,0.1,0.6-0.2,0.8l-0.8,0.5C475.3,107.9,474.9,107.8,474.8,107.5L474.8,107.5z M447.7,123.2c-0.2-0.3-0.1-0.6,0.2-0.8
			l0.8-0.5c0.3-0.2,0.6-0.1,0.8,0.2c0.2,0.3,0.1,0.6-0.2,0.8l-0.8,0.5C448.2,123.5,447.8,123.4,447.7,123.2L447.7,123.2z
			 M476.8,114.8c0-0.3,0.2-0.6,0.6-0.6h1c0.3,0,0.6,0.2,0.6,0.6c0,0.3-0.2,0.6-0.6,0.6h-1C477,115.4,476.8,115.1,476.8,114.8
			L476.8,114.8z M445.5,114.8c0-0.3,0.2-0.6,0.6-0.6h1c0.3,0,0.6,0.2,0.6,0.6c0,0.3-0.2,0.6-0.6,0.6h-1
			C445.7,115.4,445.5,115.1,445.5,114.8L445.5,114.8z M474.8,122.1c0.2-0.3,0.5-0.4,0.8-0.2l0.8,0.5c0.3,0.2,0.4,0.5,0.2,0.8
			c-0.2,0.3-0.5,0.4-0.8,0.2l-0.8-0.5C474.7,122.7,474.6,122.4,474.8,122.1L474.8,122.1z M447.7,106.5c0.2-0.3,0.5-0.4,0.8-0.2
			l0.8,0.5c0.3,0.2,0.4,0.5,0.2,0.8c-0.2,0.3-0.5,0.4-0.8,0.2l-0.8-0.5C447.6,107.1,447.5,106.8,447.7,106.5L447.7,106.5z
			 M469.4,127.5c0.3-0.2,0.6-0.1,0.8,0.2l0.5,0.8c0.2,0.3,0.1,0.6-0.2,0.8c-0.3,0.2-0.6,0.1-0.8-0.2l-0.5-0.8
			C469.1,128,469.2,127.6,469.4,127.5L469.4,127.5z M453.8,100.4c0.3-0.2,0.6-0.1,0.8,0.2l0.5,0.8c0.2,0.3,0.1,0.6-0.2,0.8
			c-0.3,0.2-0.6,0.1-0.8-0.2l-0.5-0.8C453.4,100.9,453.5,100.5,453.8,100.4z"/>
		<g>
			<path class="st10" d="M462.1,115.6L462.1,115.6c0.4,0,0.7-0.3,0.7-0.7v-12.7c0-0.4-0.3-0.7-0.7-0.7l0,0c-0.4,0-0.7,0.3-0.7,0.7
				v12.7C461.4,115.2,461.7,115.6,462.1,115.6z"/>
			<path class="st10" d="M461.6,114.3L461.6,114.3c-0.3,0.3-0.3,0.8,0,1.1l6.6,6.6c0.3,0.3,0.8,0.3,1.1,0l0,0c0.3-0.3,0.3-0.8,0-1.1
				l-6.6-6.6C462.4,114,461.9,114,461.6,114.3z"/>
		</g>
	</g>
	<path class="st6" d="M550.1,187.6L550.1,187.6L550.1,187.6z M553.8,173.4c1.3-1.3,3.1-2.1,5.1-2.1c2,0,3.8,0.8,5.1,2.1
		c1.3,1.3,2.1,3.1,2.1,5.1c0,2-0.8,3.8-2.1,5.1c-1.3,1.3-3.1,2.1-5.1,2.1c-2,0-3.8-0.8-5.1-2.1c-1.3-1.3-2.1-3.1-2.1-5.1
		C551.7,176.5,552.5,174.7,553.8,173.4L553.8,173.4z M555.4,166.3c-1,0.3-1.9,0.7-2.8,1.2c-0.9,0.5-1.7,1.1-2.5,1.9
		c-0.1,0.1-0.4,0.2-0.5,0.1l-3.3-1.9l0,0c-0.2-0.1-0.4-0.1-0.6-0.1c-0.2,0.1-0.4,0.2-0.5,0.4l0,0l-2.3,4.1c-0.1,0.2-0.1,0.4-0.1,0.6
		c0.1,0.2,0.2,0.4,0.4,0.5l0,0l3.3,1.9c0.2,0.1,0.3,0.3,0.2,0.5v0c-0.1,0.5-0.2,1-0.3,1.5c-0.1,0.5-0.1,1-0.1,1.5c0,0.5,0,1,0.1,1.5
		c0.1,0.5,0.2,1,0.3,1.5c0.1,0.2-0.1,0.4-0.2,0.5l-3.3,1.9v0c-0.2,0.1-0.3,0.3-0.4,0.5c-0.1,0.2,0,0.4,0.1,0.6l2.4,4.1v0
		c0.1,0.2,0.3,0.3,0.5,0.4c0.2,0.1,0.4,0,0.6-0.1l0,0l3.3-1.9c0.2-0.1,0.4-0.1,0.5,0.1c0.7,0.7,1.6,1.3,2.5,1.9
		c0.9,0.5,1.8,0.9,2.8,1.2c0.2,0.1,0.3,0.2,0.3,0.4v3.8c0,0.2,0.1,0.4,0.2,0.6c0.1,0.1,0.4,0.2,0.6,0.2h4.7c0.2,0,0.4-0.1,0.6-0.2
		c0.2-0.2,0.2-0.4,0.2-0.6v-3.8c0-0.2,0.1-0.4,0.3-0.4c1-0.3,1.9-0.7,2.8-1.2c0.9-0.5,1.7-1.1,2.5-1.9c0.2-0.1,0.4-0.2,0.5-0.1
		l3.3,1.9c0.2,0.1,0.4,0.1,0.6,0.1c0.2-0.1,0.4-0.2,0.5-0.4l0,0l2.3-4.1l0,0c0.1-0.2,0.1-0.4,0.1-0.6c-0.1-0.2-0.2-0.4-0.4-0.5
		l-3.3-1.9c-0.2-0.1-0.3-0.3-0.2-0.5l0,0c0.1-0.5,0.2-1,0.3-1.5c0.1-0.5,0.1-1,0.1-1.5c0-0.5,0-1-0.1-1.5c-0.1-0.5-0.2-1-0.3-1.5
		c-0.1-0.2,0.1-0.4,0.2-0.5l3.3-1.9c0.2-0.1,0.3-0.3,0.4-0.5c0.1-0.2,0-0.4-0.1-0.6l0,0l-2.3-4.1h0c-0.1-0.2-0.3-0.3-0.5-0.4
		c-0.2-0.1-0.4,0-0.6,0.1v0l-3.3,1.9c-0.2,0.1-0.4,0.1-0.5-0.1c-0.7-0.7-1.6-1.3-2.5-1.9c-0.9-0.5-1.8-0.9-2.8-1.2
		c-0.2-0.1-0.3-0.2-0.3-0.4V162c0-0.2-0.1-0.4-0.2-0.6c-0.1-0.1-0.4-0.2-0.6-0.2h-4.7c-0.2,0-0.4,0.1-0.6,0.2
		c-0.2,0.1-0.2,0.4-0.2,0.6v3.8C555.7,166.1,555.6,166.2,555.4,166.3z"/>
	<path class="st6" d="M599,98.6c1.9-1.9,4.2-3.5,6.8-4.5c2.5-1,5.1-1.6,7.9-1.6c2.8,0,5.5,0.6,7.9,1.6c2.6,1.1,4.8,2.6,6.8,4.5
		c1.9,1.9,3.5,4.2,4.5,6.8c1,2.5,1.6,5.1,1.6,7.9c0,2.8-0.6,5.5-1.6,7.9c-1.1,2.6-2.6,4.8-4.5,6.8c-1.9,1.9-4.2,3.5-6.8,4.5
		c-2.5,1-5.1,1.6-8,1.6c-2.8,0-5.5-0.6-7.9-1.6c-2.6-1.1-4.8-2.6-6.8-4.5c-1.9-1.9-3.5-4.2-4.5-6.8c-1-2.5-1.6-5.1-1.6-7.9
		c0-2.8,0.6-5.5,1.6-7.9C595.5,102.8,597.1,100.6,599,98.6L599,98.6z M606.5,95.9c-2.3,1-4.4,2.4-6.1,4.1c-1.7,1.7-3.1,3.8-4.1,6.1
		c-0.9,2.2-1.4,4.7-1.4,7.2c0,2.6,0.5,5,1.4,7.2c1,2.3,2.4,4.4,4.1,6.1c1.7,1.7,3.8,3.1,6.1,4.1c2.2,0.9,4.7,1.4,7.2,1.4
		c2.6,0,5-0.5,7.2-1.4c2.3-1,4.4-2.4,6.1-4.1c1.7-1.7,3.1-3.8,4.1-6.1c0.9-2.2,1.4-4.7,1.4-7.2c0-2.6-0.5-5-1.4-7.2
		c-1-2.3-2.4-4.4-4.1-6.1c-1.7-1.7-3.8-3.1-6.1-4.1c-2.2-0.9-4.7-1.4-7.2-1.4C611.1,94.5,608.7,95,606.5,95.9L606.5,95.9z
		 M604.2,80.6c-1.3,0.4-2.6,0.8-3.8,1.4c-1.3,0.5-2.5,1.2-3.7,1.8c-1.2,0.7-2.4,1.5-3.5,2.3c-1.1,0.8-2.2,1.7-3.2,2.7
		c-0.4,0.3-0.8,0.5-1.2,0.6c-0.5,0.1-0.9,0-1.4-0.3c-3.1-1.8-6.3-3.5-9.3-5.3c-0.1-0.1-0.3-0.1-0.4-0.1c-0.2,0-0.3,0-0.5,0
		c-0.2,0-0.3,0.1-0.5,0.2c-0.1,0.1-0.2,0.2-0.3,0.4c-2.2,3.4-4.5,7.7-6.5,11.3c-0.1,0.2-0.1,0.3-0.2,0.5c0,0.2,0,0.4,0,0.5
		c0,0.2,0.1,0.3,0.2,0.5c0.1,0.1,0.2,0.2,0.4,0.3c2.7,1.8,6.3,3.6,9.2,5.3c0.4,0.2,0.7,0.6,0.9,1c0.1,0.1,0.1,0.3,0.1,0.5l0.2,0.1
		l-0.2,0.9c-0.2,0.7-0.3,1.3-0.4,2c-0.1,0.7-0.2,1.3-0.3,2.1c-0.1,0.7-0.1,1.4-0.2,2.1c0,0.7-0.1,1.4-0.1,2.1c0,0.7,0,1.4,0.1,2.1
		c0,0.7,0.1,1.4,0.2,2.1c0.1,0.7,0.2,1.4,0.3,2.1c0.1,0.7,0.3,1.3,0.4,2c0.1,0.5,0.1,1-0.1,1.4c-0.2,0.4-0.5,0.8-1,1l-8.1,4.7l0,0
		l-1,0.6c-0.2,0.1-0.3,0.2-0.4,0.3c-0.1,0.1-0.2,0.3-0.2,0.5c0,0.2-0.1,0.4,0,0.5c0,0.2,0.1,0.3,0.2,0.5l6,10.4l0,0l0.5,0.8
		c0.1,0.2,0.2,0.3,0.3,0.4c0.1,0.1,0.3,0.2,0.5,0.2c0.2,0,0.4,0.1,0.5,0c0.2,0,0.3-0.1,0.5-0.2c2.9-1.8,6.2-3.6,9.2-5.3
		c0.4-0.2,0.9-0.3,1.3-0.3c0.5,0.1,0.9,0.3,1.2,0.6l0,0c1,1,2.1,1.9,3.2,2.7c1.1,0.8,2.3,1.6,3.5,2.3c1.2,0.7,2.4,1.3,3.7,1.8
		c1.3,0.5,2.6,1,3.9,1.4c0.5,0.1,0.9,0.4,1.1,0.8c0.3,0.4,0.4,0.8,0.4,1.3l0,10.6c0,0.2,0,0.3,0.1,0.5c0.1,0.2,0.2,0.3,0.3,0.4
		c0.1,0.1,0.3,0.2,0.4,0.3c0.2,0.1,0.3,0.1,0.5,0.1h13c0.2,0,0.3,0,0.5-0.1c0.2-0.1,0.3-0.2,0.4-0.3c0.1-0.1,0.2-0.3,0.3-0.4
		c0.1-0.2,0.1-0.3,0.1-0.5v-10.6c0-0.5,0.2-1,0.5-1.3c0.3-0.4,0.7-0.7,1.2-0.8c1.3-0.4,2.6-0.8,3.8-1.4c1.3-0.5,2.5-1.2,3.7-1.8
		c1.2-0.7,2.4-1.5,3.5-2.3c1.1-0.8,2.2-1.7,3.2-2.7c0.4-0.4,0.8-0.6,1.3-0.6c0.5,0,1,0.1,1.4,0.4l9.1,5.3c0.2,0.1,0.3,0.1,0.5,0.2
		c0.2,0,0.4,0,0.5,0c0.2,0,0.3-0.1,0.5-0.2c0.1-0.1,0.2-0.2,0.3-0.4c2.2-3.8,4.4-7.5,6.5-11.3c0.1-0.2,0.1-0.3,0.2-0.5
		c0-0.2,0-0.3,0-0.5c0-0.2-0.1-0.3-0.2-0.5c-0.1-0.1-0.2-0.2-0.4-0.3l-9.2-5.3c-0.4-0.2-0.7-0.6-0.9-1c0-0.1-0.1-0.2-0.1-0.4l-0.2,0
		l0.2-1c0.2-0.7,0.3-1.3,0.4-2c0.1-0.7,0.2-1.3,0.3-2.1c0.1-0.7,0.1-1.4,0.2-2.1c0-0.7,0.1-1.4,0.1-2.1c0-0.7,0-1.4-0.1-2.1
		c0-0.7-0.1-1.4-0.2-2.1c-0.1-0.7-0.2-1.4-0.3-2.1c-0.1-0.7-0.3-1.3-0.4-2c-0.1-0.5-0.1-1,0.1-1.4c0.2-0.4,0.5-0.8,1-1l9.1-5.3
		c0.2-0.1,0.3-0.2,0.4-0.3c0.1-0.1,0.2-0.3,0.2-0.5c0-0.2,0.1-0.4,0-0.5c0-0.2-0.1-0.3-0.2-0.5c-2.2-3.3-4.5-7.7-6.5-11.3
		c-0.1-0.2-0.2-0.3-0.3-0.4c-0.1-0.1-0.3-0.2-0.5-0.2c-0.2,0-0.4-0.1-0.5,0c-0.2,0-0.3,0.1-0.5,0.2l-9.2,5.3
		c-0.4,0.3-0.9,0.3-1.4,0.3c-0.5-0.1-0.9-0.3-1.2-0.6c-1-1-2.1-1.9-3.2-2.7c-1.1-0.8-2.2-1.6-3.5-2.3c-1.2-0.7-2.4-1.3-3.7-1.8
		c-1.3-0.5-2.6-1-3.9-1.4c-0.5-0.1-0.9-0.4-1.1-0.8c-0.3-0.4-0.4-0.8-0.4-1.3l0-10.6c0-0.2,0-0.3-0.1-0.5c-0.1-0.2-0.2-0.3-0.3-0.4
		c-0.1-0.1-0.3-0.2-0.4-0.3c-0.2-0.1-0.3-0.1-0.5-0.1h-13c-0.2,0-0.3,0-0.5,0.1c-0.2,0.1-0.3,0.2-0.4,0.3c-0.2,0.2-0.4,0.6-0.4,0.9
		v10.6c0,0.5-0.2,1-0.5,1.3C605.1,80.2,604.7,80.5,604.2,80.6L604.2,80.6z M599.6,80.2c-1.3,0.6-2.6,1.2-3.9,1.9
		c-1.3,0.7-2.5,1.5-3.7,2.4c-1.2,0.9-2.3,1.8-3.3,2.9c0,0-0.1,0.1-0.1,0.1c-0.1,0-0.1,0-0.2,0c-3.1-1.8-6.2-3.6-9.3-5.4
		c-0.4-0.2-0.8-0.3-1.2-0.4c-0.4,0-0.8,0-1.2,0.1c-0.4,0.1-0.8,0.3-1.1,0.6c-0.3,0.3-0.6,0.6-0.8,0.9c-2.2,3.6-4.4,7.6-6.5,11.3
		c-0.2,0.4-0.4,0.8-0.4,1.2c-0.1,0.4,0,0.9,0.1,1.3c0.1,0.4,0.3,0.8,0.6,1.1c0.3,0.3,0.6,0.6,0.9,0.8c3,1.8,6.2,3.6,9.2,5.3
		c0,0,0.1,0.1,0.1,0.1c0,0.1,0,0.1,0,0.2l-0.2,0.9l0,0c-0.1,0.4-0.2,0.8-0.3,1.3c-0.1,0.7-0.2,1.5-0.3,2.2c-0.1,0.7-0.2,1.4-0.2,2.2
		c0,0.8-0.1,1.5-0.1,2.2c0,0.7,0,1.5,0.1,2.2c0,0.7,0.1,1.5,0.2,2.2c0.1,0.7,0.2,1.4,0.3,2.2c0.1,0.7,0.3,1.4,0.5,2.1
		c0,0.1,0,0.1,0,0.2c0,0.1-0.1,0.1-0.1,0.1c-3.4,1.8-6.8,3.9-10.2,5.9l0.1,0.1l-0.1,0.1c-0.3,0.3-0.5,0.7-0.6,1.1
		c-0.1,0.4-0.1,0.8-0.1,1.3c0.1,0.4,0.2,0.8,0.4,1.2l7,12.1l0.1-0.1c0.1,0.1,0.1,0.1,0.2,0.2c0.3,0.3,0.7,0.5,1.1,0.6
		c0.4,0.1,0.8,0.1,1.3,0.1c0.4-0.1,0.8-0.2,1.2-0.4c3.1-1.6,6.2-3.6,9.2-5.3c0,0,0.1,0,0.2,0c0.1,0,0.1,0,0.2,0.1
		c1.1,1,2.2,2,3.3,2.9c1.2,0.9,2.4,1.7,3.7,2.4c1.3,0.7,2.6,1.4,3.9,2c1.3,0.6,2.7,1.1,4.1,1.5c0.1,0,0.1,0,0.1,0.1
		c0,0,0.1,0.1,0.1,0.2v10.6c0,0.4,0.1,0.9,0.2,1.2c0.2,0.4,0.4,0.8,0.7,1.1c0.3,0.3,0.7,0.5,1,0.7c0.4,0.2,0.8,0.2,1.2,0.2h13
		c0.4,0,0.9-0.1,1.2-0.2c0.4-0.2,0.8-0.4,1.1-0.7c0.3-0.3,0.5-0.7,0.7-1.1c0.2-0.4,0.2-0.8,0.2-1.2v-10.6c0-0.1,0-0.1,0.1-0.2
		c0,0,0.1-0.1,0.1-0.1l0,0c1.4-0.4,2.8-0.9,4.1-1.5c1.3-0.6,2.6-1.2,3.9-1.9c1.3-0.7,2.5-1.5,3.7-2.4c1.2-0.9,2.3-1.8,3.3-2.9
		c0,0,0.1-0.1,0.2-0.1c0.1,0,0.1,0,0.2,0l9.2,5.3c0.4,0.2,0.8,0.4,1.2,0.4c0.4,0.1,0.9,0,1.3-0.1c0.4-0.1,0.8-0.3,1.1-0.6
		c0.3-0.2,0.6-0.6,0.8-0.9c2.4-3.9,4.7-8.1,7-12.1l-0.1-0.1c0-0.1,0-0.2,0.1-0.3c0.1-0.4,0-0.9-0.1-1.3c-0.1-0.4-0.3-0.8-0.6-1.1
		c-0.3-0.3-0.6-0.6-0.9-0.8l-9.2-5.3c0,0-0.1-0.1-0.1-0.1c0-0.1,0-0.1,0-0.2l0.2-1l0,0c0.1-0.4,0.2-0.8,0.2-1.2
		c0.1-0.7,0.2-1.5,0.3-2.2c0.1-0.7,0.2-1.4,0.2-2.2c0-0.8,0.1-1.5,0.1-2.2c0-0.7,0-1.5-0.1-2.2c0-0.7-0.1-1.5-0.2-2.2
		c-0.1-0.7-0.2-1.4-0.3-2.2c-0.1-0.7-0.3-1.4-0.5-2.1c0-0.1,0-0.1,0-0.2c0-0.1,0.1-0.1,0.1-0.1l9.2-5.3c0.4-0.2,0.7-0.5,0.9-0.8
		c0.3-0.3,0.5-0.7,0.6-1.1c0.1-0.4,0.1-0.8,0.1-1.3c-0.1-0.4-0.2-0.8-0.4-1.2c-2.2-4.1-4.7-8.2-7-12.2l-0.1,0.1
		c-0.1-0.1-0.1-0.1-0.2-0.2c-0.3-0.3-0.7-0.5-1.1-0.6c-0.4-0.1-0.8-0.1-1.3-0.1c-0.4,0.1-0.8,0.2-1.2,0.4l-0.7,0.4l0,0l-8.5,4.9
		c-0.1,0-0.1,0-0.2,0c-0.1,0-0.1,0-0.1-0.1l0,0c-1-1-2.2-2-3.3-2.8c-1.2-0.9-2.4-1.7-3.6-2.4c-1.3-0.7-2.6-1.4-3.9-2
		c-1.3-0.6-2.7-1.1-4.1-1.5c-0.1,0-0.1,0-0.1-0.1c0,0-0.1-0.1-0.1-0.2V67.8c0-0.4-0.1-0.9-0.2-1.2c-0.2-0.4-0.4-0.8-0.7-1.1
		c-0.3-0.3-0.7-0.5-1-0.7c-0.4-0.2-0.8-0.2-1.2-0.2h-13c-0.4,0-0.9,0.1-1.2,0.2c-0.4,0.2-0.8,0.4-1.1,0.7c-0.6,0.6-1,1.4-1,2.3v10.6
		c0,0.1,0,0.1-0.1,0.2c0,0-0.1,0.1-0.1,0.1l0,0C602.3,79.2,600.9,79.6,599.6,80.2z"/>
	<path class="st6" d="M639.3,209.4c0-0.7,0.6-1.3,1.3-1.3c0.7,0,1.3,0.6,1.3,1.3v5.8c0,0.7-0.6,1.3-1.3,1.3c-0.7,0-1.3-0.6-1.3-1.3
		V209.4L639.3,209.4z M630.5,214.1c-0.5-0.5-0.5-1.3,0-1.8c0.5-0.5,1.3-0.5,1.8,0l4.1,4.1c0.5,0.5,0.5,1.3,0,1.8
		c-0.5,0.5-1.3,0.5-1.8,0L630.5,214.1L630.5,214.1z M627.6,223.7c-0.7,0-1.3-0.6-1.3-1.3c0-0.7,0.6-1.3,1.3-1.3h5.8
		c0.7,0,1.3,0.6,1.3,1.3c0,0.7-0.6,1.3-1.3,1.3H627.6L627.6,223.7z M632.3,232.4c-0.5,0.5-1.3,0.5-1.8,0c-0.5-0.5-0.5-1.3,0-1.8
		l4.1-4.1c0.5-0.5,1.3-0.5,1.8,0c0.5,0.5,0.5,1.3,0,1.8L632.3,232.4L632.3,232.4z M641.8,235.3c0,0.7-0.6,1.3-1.3,1.3
		c-0.7,0-1.3-0.6-1.3-1.3v-5.8c0-0.7,0.6-1.3,1.3-1.3c0.7,0,1.3,0.6,1.3,1.3V235.3L641.8,235.3z M650.6,230.6c0.5,0.5,0.5,1.3,0,1.8
		c-0.5,0.5-1.3,0.5-1.8,0l-4.1-4.1c-0.5-0.5-0.5-1.3,0-1.8c0.5-0.5,1.3-0.5,1.8,0L650.6,230.6L650.6,230.6z M653.5,221.1
		c0.7,0,1.3,0.6,1.3,1.3c0,0.7-0.6,1.3-1.3,1.3h-5.8c-0.7,0-1.3-0.6-1.3-1.3c0-0.7,0.6-1.3,1.3-1.3H653.5L653.5,221.1z M648.8,212.3
		c0.5-0.5,1.3-0.5,1.8,0c0.5,0.5,0.5,1.3,0,1.8l-4.1,4.1c-0.5,0.5-1.3,0.5-1.8,0c-0.5-0.5-0.5-1.3,0-1.8L648.8,212.3z"/>
	<path class="st6" d="M103.1,77.4c0-0.7,0.6-1.3,1.3-1.3c0.7,0,1.3,0.6,1.3,1.3v5.8c0,0.7-0.6,1.3-1.3,1.3c-0.7,0-1.3-0.6-1.3-1.3
		V77.4L103.1,77.4z M94.3,82.1c-0.5-0.5-0.5-1.3,0-1.8c0.5-0.5,1.3-0.5,1.8,0l4.1,4.1c0.5,0.5,0.5,1.3,0,1.8c-0.5,0.5-1.3,0.5-1.8,0
		L94.3,82.1L94.3,82.1z M91.5,91.6c-0.7,0-1.3-0.6-1.3-1.3c0-0.7,0.6-1.3,1.3-1.3h5.8c0.7,0,1.3,0.6,1.3,1.3c0,0.7-0.6,1.3-1.3,1.3
		H91.5L91.5,91.6z M96.2,100.4c-0.5,0.5-1.3,0.5-1.8,0c-0.5-0.5-0.5-1.3,0-1.8l4.1-4.1c0.5-0.5,1.3-0.5,1.8,0c0.5,0.5,0.5,1.3,0,1.8
		L96.2,100.4L96.2,100.4z M105.7,103.3c0,0.7-0.6,1.3-1.3,1.3c-0.7,0-1.3-0.6-1.3-1.3v-5.8c0-0.7,0.6-1.3,1.3-1.3
		c0.7,0,1.3,0.6,1.3,1.3V103.3L105.7,103.3z M114.5,98.6c0.5,0.5,0.5,1.3,0,1.8c-0.5,0.5-1.3,0.5-1.8,0l-4.1-4.1
		c-0.5-0.5-0.5-1.3,0-1.8c0.5-0.5,1.3-0.5,1.8,0L114.5,98.6L114.5,98.6z M117.3,89.1c0.7,0,1.3,0.6,1.3,1.3c0,0.7-0.6,1.3-1.3,1.3
		h-5.8c-0.7,0-1.3-0.6-1.3-1.3c0-0.7,0.6-1.3,1.3-1.3H117.3L117.3,89.1z M112.6,80.3c0.5-0.5,1.3-0.5,1.8,0c0.5,0.5,0.5,1.3,0,1.8
		l-4.1,4.1c-0.5,0.5-1.3,0.5-1.8,0c-0.5-0.5-0.5-1.3,0-1.8L112.6,80.3z"/>
	<path class="st6" d="M214.9,241.3c0-0.7,0.6-1.3,1.3-1.3c0.7,0,1.3,0.6,1.3,1.3v5.8c0,0.7-0.6,1.3-1.3,1.3c-0.7,0-1.3-0.6-1.3-1.3
		V241.3L214.9,241.3z M206.1,246c-0.5-0.5-0.5-1.3,0-1.8c0.5-0.5,1.3-0.5,1.8,0l4.1,4.1c0.5,0.5,0.5,1.3,0,1.8
		c-0.5,0.5-1.3,0.5-1.8,0L206.1,246L206.1,246z M203.3,255.5c-0.7,0-1.3-0.6-1.3-1.3c0-0.7,0.6-1.3,1.3-1.3h5.8
		c0.7,0,1.3,0.6,1.3,1.3c0,0.7-0.6,1.3-1.3,1.3H203.3L203.3,255.5z M208,264.3c-0.5,0.5-1.3,0.5-1.8,0c-0.5-0.5-0.5-1.3,0-1.8
		l4.1-4.1c0.5-0.5,1.3-0.5,1.8,0c0.5,0.5,0.5,1.3,0,1.8L208,264.3L208,264.3z M217.5,267.2c0,0.7-0.6,1.3-1.3,1.3
		c-0.7,0-1.3-0.6-1.3-1.3v-5.8c0-0.7,0.6-1.3,1.3-1.3c0.7,0,1.3,0.6,1.3,1.3V267.2L217.5,267.2z M226.3,262.5c0.5,0.5,0.5,1.3,0,1.8
		c-0.5,0.5-1.3,0.5-1.8,0l-4.1-4.1c-0.5-0.5-0.5-1.3,0-1.8c0.5-0.5,1.3-0.5,1.8,0L226.3,262.5L226.3,262.5z M229.1,252.9
		c0.7,0,1.3,0.6,1.3,1.3c0,0.7-0.6,1.3-1.3,1.3h-5.8c-0.7,0-1.3-0.6-1.3-1.3c0-0.7,0.6-1.3,1.3-1.3H229.1L229.1,252.9z M224.4,244.2
		c0.5-0.5,1.3-0.5,1.8,0c0.5,0.5,0.5,1.3,0,1.8l-4.1,4.1c-0.5,0.5-1.3,0.5-1.8,0c-0.5-0.5-0.5-1.3,0-1.8L224.4,244.2z"/>
	<g>
		<path class="st6" d="M258.8,365.1h3.4c0.6,0,1.1,0.5,1.1,1.1v3.4c0,0.6-0.5,1.1-1.1,1.1h-3.4c-0.6,0-1.1-0.5-1.1-1.1v-3.4
			C257.6,365.6,258.1,365.1,258.8,365.1z"/>
		<path class="st6" d="M270.2,365.1h3.4c0.6,0,1.1,0.5,1.1,1.1v3.4c0,0.6-0.5,1.1-1.1,1.1h-3.4c-0.6,0-1.1-0.5-1.1-1.1v-3.4
			C269.1,365.6,269.6,365.1,270.2,365.1z"/>
		<path class="st6" d="M281.7,365.1h3.4c0.6,0,1.1,0.5,1.1,1.1v3.4c0,0.6-0.5,1.1-1.1,1.1h-3.4c-0.6,0-1.1-0.5-1.1-1.1v-3.4
			C280.5,365.6,281.1,365.1,281.7,365.1z"/>
		<path class="st6" d="M293.1,365.1h3.4c0.6,0,1.1,0.5,1.1,1.1v3.4c0,0.6-0.5,1.1-1.1,1.1h-3.4c-0.6,0-1.1-0.5-1.1-1.1v-3.4
			C292,365.6,292.5,365.1,293.1,365.1z"/>
	</g>
	<path class="st15" d="M269.1,129.8L269.1,129.8c0.3,0,0.6,0,0.8,0h14.2v-15v-1.5c0-5.3-2.8-10-6.9-12.6h0l0,0
		c-0.2-0.1-0.3-0.2-0.5-0.3c-5-3.1-5-6.1,0-9.2c0.2-0.1,0.3-0.2,0.5-0.3l0,0h0c4.2-2.7,6.9-7.3,6.9-12.6v-1.5v-15h-14.2
		c-0.3,0-0.6,0-0.8,0l0,0c-0.3,0-0.6,0-0.8,0h-14.2v15v1.5c0,5.3,2.8,10,6.9,12.6l0,0l0,0c0.2,0.1,0.3,0.2,0.5,0.3
		c5,3.1,5,6.1,0,9.2c-0.2,0.1-0.3,0.2-0.5,0.3l0,0l0,0c-4.2,2.7-6.9,7.3-6.9,12.6v1.5v15h14.2C268.5,129.8,268.8,129.8,269.1,129.8z
		"/>
	<path class="st16" d="M263,123.7h4.1c2.7,0,2.8-2.4,4.6-2.4c1.9,0,6.1,0,8.3,0c2.3,0,2.7,2.1,2.7,2.1v2.9h-12.8l0,0
		c-0.3,0-0.5,0-0.8,0c-0.3,0-0.5,0-0.8,0l0,0H263V123.7z"/>
	<path class="st16" d="M257.5,81.8c-1.3-2.1-2-4.5-2-7.1c0-12.1,8.2,0.8,16.6,1.5c1.7,0.1,3.1-0.1,4.3-0.4c0.3,0.9,0.5,1.5,0.5,1.7
		c0,0.7-7.1,6.1-8.4,6.4c-1.2,0.3-7.6,0.7-10.2-1.4C258.1,82.3,257.8,82.1,257.5,81.8z"/>
	<path class="st10" d="M271.5,96c-0.1-2.1,1.3-4.1,4.4-6l0,0l0,0c0.1-0.1,0.3-0.2,0.4-0.3l0,0l0,0c3.9-2.5,6.3-6.8,6.3-11.5
		c0-12.1-8.2,0.8-16.6,1.5c-8.3,0.7-10.7-6.5-10.7-6.5v5c0,4.7,2.4,9,6.3,11.5l0,0c0.1,0.1,0.3,0.2,0.4,0.3l0,0l0,0
		c3.1,1.9,4.5,4,4.4,6h0v8.3c0,1.4,1.1,2.5,2.5,2.5l0,0c1.4,0,2.5-1.1,2.5-2.5L271.5,96L271.5,96L271.5,96z M269.1,115.7
		L269.1,115.7c1.4,0,2.5-1.1,2.5-2.5v-1.8c0-1.4-1.1-2.5-2.5-2.5l0,0c-1.4,0-2.5,1.1-2.5,2.5v1.8
		C266.6,114.6,267.7,115.7,269.1,115.7z"/>
	<path class="st10" d="M282.7,128.4v-5c0,1.4-1,2.4-2.6,2.4c-1.5,0-6.4,0-9,0c-2.7,0-2.8-2.4-4.6-2.4c-1.9,0-6.1,0-8.3,0
		c-2.3,0-2.7,2.1-2.7,2.1v2.9h12.8l0,0c0.3,0,0.5,0,0.8,0s0.5,0,0.8,0l0,0H282.7z"/>
	<path class="st17" d="M254.5,60h29.1c1,0,1.9,0.8,1.9,1.9l0,0c0,1-0.8,1.9-1.9,1.9h-29.1c-1,0-1.9-0.8-1.9-1.9l0,0
		C252.6,60.9,253.5,60,254.5,60z"/>
	<path class="st17" d="M254.5,131.5h29.1c1,0,1.9-0.8,1.9-1.9l0,0c0-1-0.8-1.9-1.9-1.9h-29.1c-1,0-1.9,0.8-1.9,1.9l0,0
		C252.6,130.6,253.5,131.5,254.5,131.5z"/>
	<path class="st8" d="M275.2,60h8.4c1,0,1.9,0.8,1.9,1.9l0,0c0,1-0.8,1.9-1.9,1.9h-8.4c-1,0-1.9-0.8-1.9-1.9l0,0
		C273.3,60.9,274.2,60,275.2,60z"/>
	<path class="st8" d="M275.2,131.5h8.4c1,0,1.9-0.8,1.9-1.9l0,0c0-1-0.8-1.9-1.9-1.9h-8.4c-1,0-1.9,0.8-1.9,1.9l0,0
		C273.3,130.6,274.2,131.5,275.2,131.5z"/>
	<path class="st18" d="M342.2,128.5c0,0,1.7-2.8,4.9-3.2c3.2-0.5,14.9-0.4,18.3,1.8c3.4,2.1,1.5,6.3,1.5,6.3L342.2,128.5z"/>
	<path class="st19" d="M284.7,144.1c0,0-2.7-5.2-2.9-6.6c-0.2-1.4-0.4-6.4-1-7.6c-0.6-1.2-4.8-6.5-5.2-7.3c-0.4-0.8-2.5,1.7-1.3,4.5
		c1.2,2.7,1.9,3.1,1.9,3.1l0,1.2h-11.6c0,0,1.2,3.8,6.1,6.3c4.9,2.6,8.3,13.3,8.3,13.3l7.1-4.3L284.7,144.1z"/>
	<path class="st9" d="M340,129c0,0-12.1,3.1-18,7.3c-5.9,4.2-21.1,23.9-22.7,25.3c0,0-14.3-21.4-15.1-22.8c-1.2-2.1-10.4,3-10.5,3.2
		c-0.4,1.7,2.1,4.7,3.6,8.6c2.3,5.7,10,20.4,12.3,24.1c2.3,3.7,7.5,7.6,15.8,2.8c8.3-4.8,19.9-16.8,19.9-16.8L340,129z"/>
	<path class="st20" d="M361.6,108.1l-0.2,5.4c0,0,0,11.6,0,12.9c0,1.3,1.1,3.2,3,3.3c4.8,6-0.5,12-4,12.5
		c-3.5,0.5-20.6-3.6-21.8-4.6c-0.8-0.7,4.3-6.9,3.8-8.9c0.4-0.1-0.1,0,0.3-0.1c1-0.3,1.9-0.8,2.5-1.4c1.9-2,1.8-11.1-0.1-13.5
		C343.2,111.4,361.6,108.1,361.6,108.1z"/>
	<path class="st9" d="M340,129c1.1-0.3,3.4-0.9,4.3-1c1.3,6.9,8.5,13.8,19,1.1c6,1,24.4,6.3,25.5,13c0,22-8,36.7-8,63.4
		c0,12.2,4.5,31.3,4.4,48.1c-10.4-1.3-56.3-9.6-63.9-0.4c-0.6-0.5-1.5-2.8-0.7-6.3c4.6-20.1,2.3-45.8,2.2-68.3l-0.2,0.5
		c0-3.6,0.1-7,0.3-10.2c0.2-5.2,0.5-10.2,1.2-14.8c1.6-13,3.9-19.5,3.9-19.5l0,0c4.4-2.5,10.2-4.9,10.2-4.9l0,0
		C338.7,129.5,339.4,129.2,340,129L340,129z"/>
	<path class="st21" d="M381.7,135.2c-0.9,1.3-1.5,2.5-1.5,2.5c-2.7,22.7-6.7,35.5-30,35.5c-13.5,0-22.4,0-27.5,0
		c-0.1,1.9-0.1,3.9-0.1,6l0.2-0.5c0,4.2,0.1,8.5,0.3,12.9c21,7,41.7,13.4,57.9,15c0-0.4,0-0.7,0-1.1c0-26.6,8-41.4,8-63.4
		C388.5,139.5,385.5,137.1,381.7,135.2z"/>
	<path class="st18" d="M342.2,128.5c0.9-0.2,1.7-0.4,2.2-0.5c0.9,6.6,8.4,12.5,19,1.1c1.2,0.2,2.5,0.3,3.9,0.9
		c-8.4,14-26,15.1-25.2-1.2C342.1,128.7,342.1,128.6,342.2,128.5z"/>
	<path class="st10" d="M353.6,138.2c0.1-0.2,0.4-0.2,0.6-0.1c0.2,0.1,0.2,0.4,0.1,0.6c-3.8,5.6-1.7,9.1,0.5,12.8c1.7,3,3.6,6,3,10.4
		c0,0.2-0.3,0.4-0.5,0.4c-0.2,0-0.4-0.3-0.4-0.5c0.6-4-1.2-7-2.8-9.8C351.7,148,349.5,144.3,353.6,138.2z"/>
	<path class="st10" d="M348.2,138.3c0-0.2,0.2-0.4,0.4-0.4c0.2,0,0.4,0.2,0.4,0.4c0,0,0.4,16.3-10.3,15.6c-0.2,0-0.4-0.2-0.4-0.5
		c0-0.2,0.2-0.4,0.5-0.4C348.5,153.7,348.2,138.3,348.2,138.3z"/>
	<path class="st22" d="M316,389.1l9,0.6c1.4,0.1,2.5,1.4,2.4,2.8l-1.2,17.5c-0.1,1.4-1.4,2.5-2.8,2.4l-9-0.6
		c-1.4-0.1-2.5-1.4-2.4-2.8l1.2-17.5C313.3,390.1,314.6,389,316,389.1z"/>
	<polygon class="st23" points="316,276.5 311.1,395.1 328.6,395.1 347.2,273.8 	"/>
	<path class="st8" d="M314,324.6l-0.9,21.1h8.2c6.1,0,9.5,2.8,8.9,7.2c-0.7,4.4-4.8,31.1-4.8,31.1s-0.3,4.4-14.1,4.6l-0.3,6.5h17.5
		l10.2-66.6C330.1,327,321,325.6,314,324.6z"/>
	<path class="st8" d="M323.8,395.1h0.7l8.8-57.4c0-0.2-0.1-0.4-0.3-0.4c-0.2,0-0.4,0.1-0.4,0.3L323.8,395.1z"/>
	<polygon class="st23" points="352.2,280.3 392.8,398.7 409.6,391.1 385.6,278.2 	"/>
	<path class="st8" d="M362.9,311.7l29.8,87l16.8-7.6l-1.4-6.4c-3.7,1.2-9.2,2.9-11.2,3c-3.3,0.2-4.4-1.1-4.8-2
		c-0.3-0.9-8.3-25.9-9.9-32.1c-1.6-6.2,2.6-8.2,7.5-8.2h10l-6-28.2C384.4,314.2,371.4,311.8,362.9,311.7z"/>
	<path class="st8" d="M406.7,392.4l0.7-0.3l-12.6-55.4c0-0.2-0.2-0.3-0.4-0.3c-0.2,0-0.3,0.2-0.3,0.4L406.7,392.4z"/>
	<path class="st18" d="M311.1,392.7h18.8c1,0,1.7,0.8,1.7,1.7v6c0,1-0.8,1.7-1.7,1.7h-18.8c-1,0-1.7-0.8-1.7-1.7v-6
		C309.4,393.5,310.1,392.7,311.1,392.7z"/>
	<path class="st17" d="M311.6,425.3c0,0-25.9,0.7-26.9-1.5c0,0,0-1.7,0-2.9c0-1.1,1.2-2.8,4.4-3.9c3.2-1.1,10.1-3.1,12.2-3.9
		c2.1-0.8,8.2-8.4,9-9.3c0.9-0.9,4.9,2.1,5.7,2.6c0.9,0.5,0.3,1.7-0.1,3.1C315.5,411,311.6,425.3,311.6,425.3z"/>
	<path class="st18" d="M284.7,428.2l41.4,0c0.5,0,0.9-0.4,0.9-0.9l0-2.6c0-0.5-0.4-0.9-0.9-0.9l-41.4,0c-0.5,0-0.9,0.4-0.9,0.9
		l0,2.6C283.8,427.8,284.2,428.2,284.7,428.2z"/>
	<path class="st18" d="M284.7,428.2l14.1,0c0.5,0,0.9-0.4,0.9-0.9l0-2.6c0-0.5-0.4-0.9-0.9-0.9l-14.1,0c-0.5,0-0.9,0.4-0.9,0.9
		l0,2.6C283.8,427.8,284.2,428.2,284.7,428.2z"/>
	<path class="st23" d="M303,414.2c0.1,0.5,1.4,3,0.5,3.6c-0.9,0.6-3.8,2.8-5.4,2.8c-1.6,0-5,0-9.3,0c-4.3,0-3.3-1.5-3.3-1.5
		c-0.7,0.7-1,1.4-1,1.9c0,1.1,0,2.9,0,2.9l41.4,0c0,0,1.8-2,1.8-6.8c0-4.8,0.2-7.6-0.5-8.3c-0.7-0.8-1.2-0.4-1.2-0.4
		c-3.2,2.8-7.1,0.8-9.2-0.3c-0.2-0.1-0.4-0.2-0.6-0.4c-1.7-1-2.7-1.9-4.1-1c-1.6,0.9-7.5,5-8.4,5.7C303,412.9,302.9,413.6,303,414.2
		z"/>
	<path class="st8" d="M284.7,421.7l0,2.2l41.4,0c0,0,1.8-2,1.8-6.8c0-4.8,0.2-7.6-0.5-8.3c0.1,1.5-0.7,3.3-2.2,3.3
		c-1.4,0-5.2,0-8.3,0c-3,0-3.6,1.6-3.6,1.6s-1.5,3-2.6,5.2c-1.1,2.1-2.9,3.6-4.3,3.6c-1.3,0-17.7,0-19.9,0
		C285.6,422.3,285,422,284.7,421.7z"/>
	<path class="st22" d="M405.4,390.5l-8.7,2.3c-1.4,0.4-2.2,1.8-1.9,3.2l4.5,16.9c0.4,1.4,1.8,2.2,3.2,1.9l8.7-2.3
		c1.4-0.4,2.2-1.8,1.9-3.2l-4.5-16.9C408.2,391,406.8,390.1,405.4,390.5z"/>
	<path class="st8" d="M407,423.9h-8c-0.9,0-1.6-0.6-1.6-1.4v-14c0-0.8,0.7-1.4,1.6-1.4h8c0.9,0,1.6,0.6,1.6,1.4v14
		C408.6,423.3,407.9,423.9,407,423.9z"/>
	<path class="st17" d="M400.9,406.8c0,0-0.8-2.1-0.9-2.5c-0.1-0.4-0.6-1.8,1.5-1.8c2.1,0,3.7,0,5,0c1.3,0,3.5,0.4,4.3,2.8
		c0.8,2.3,2.3,6.5,2.8,7.9c0.5,1.4,7.8,4.9,8.9,6c1.1,1.1,1.4,2.3,1.4,2.5c-0.1,0.2-14.6,1.7-16.6,0.9c-2-0.9-4.3-8.9-4.3-8.9
		L400.9,406.8z"/>
	<path class="st23" d="M407.4,424.4l-1.5-0.5c0,0-0.7-0.5-1-1.4c-0.3-0.9-0.8-2.3-1.1-3c-0.3-0.7-1.1-0.8-1.6-2.1
		c-0.5-1.3-2.6-7.2-3.2-8.9c-0.6-1.6,1.3-2.6,2.4-3.6c1.1-1,3.5-0.1,4.1,1.8c0.7,1.9,1.5,4.1,2,5.7c0.6,1.6,0.5,2.3-0.4,3.1
		c-0.9,0.8-1.6,1.4-1.9,1.6c-0.3,0.2,0.3,1.2,1,2c0.7,0.8,2.9,2.5,6.6,2.5c3.7,0,5.3,0,7.2,0c1.8,0,2.2-1.1,1.6-2.6
		c-0.5-1.5-8-2.6-9.3-6.1c-1.2-3.4-2.1-5.8-2.3-6.5c-0.3-0.8,0.3-1,0.6-1.2c0.2-0.2,0.8,0,2.3,1.4c1.5,1.4,1.6,2.4,2.4,4.8
		c0.9,2.4,3.2,4.5,5.9,6.1c2.7,1.6,5.1,2.9,6.3,6.2C428.8,427.2,410,427.7,407.4,424.4z"/>
	<path class="st8" d="M401.9,416.4l-2.8-7.8c-0.6-1.6,1.3-2.6,2.4-3.6c0.1-0.1,0.2-0.1,0.3-0.2c0,0-0.7,0.7-0.2,2.1
		c0.5,1.5,1.1,2.9,1.7,4.6C403.8,413.1,403.9,414.6,401.9,416.4L401.9,416.4z M412,405.8c0.3,0.2,0.6,0.5,1.1,0.9
		c1.5,1.4,1.6,2.4,2.4,4.8c0.4,1.2,1.3,2.4,2.3,3.4l0,0c0,0-3.2-2.7-3.8-3.6C413.7,410.8,412.7,408,412,405.8L412,405.8z
		 M423.9,419.3c1.6,1.1,2.9,2.4,3.7,4.6c1,2.9-13.4,3.6-18.6,1.5l4.1,0.7l-2.6-1.8c0,0,0.1-1.6,1.4-1.6c1.3,0,9,0,10.4,0
		S424.9,422.1,423.9,419.3z"/>
	<path class="st18" d="M407.5,428.2h21.6c0.5,0,0.8-0.4,0.7-0.9l-0.9-2.6c-0.2-0.5-0.8-0.9-1.3-0.9H406c-0.5,0-0.8,0.4-0.7,0.9
		l0.9,2.6C406.4,427.8,407,428.2,407.5,428.2z"/>
	<path class="st18" d="M399.2,428.2h15c0.5,0,0.8-0.4,0.7-0.9l-0.9-2.6c-0.2-0.5-0.8-0.9-1.3-0.9h-15c-0.5,0-0.8,0.4-0.7,0.9
		l0.9,2.6C398.1,427.8,398.7,428.2,399.2,428.2z"/>
	<path class="st10" d="M411.3,406.7c0.2-0.1,0.2-0.2,0.1-0.4c-0.1-0.2-0.4-0.2-0.6-0.2l-2.8,0.9l-3.4-0.9c-0.2-0.1-0.4,0-0.4,0.2
		c0,0.2,0.1,0.3,0.4,0.4l2.4,0.6l-2,0.6c-0.2,0.1-0.2,0.2-0.1,0.4c0.1,0.2,0.4,0.2,0.6,0.2l2.8-0.9l3.4,0.9c0.2,0.1,0.4,0,0.4-0.2
		c0-0.2-0.1-0.3-0.4-0.4l-2.4-0.6L411.3,406.7L411.3,406.7z M406.8,411.9c-0.2-0.1-0.4,0-0.4,0.2c0,0.2,0.1,0.3,0.4,0.4l2.4,0.6
		l-2,0.6c-0.2,0.1-0.2,0.2-0.1,0.4c0.1,0.2,0.4,0.2,0.6,0.2l2.8-0.9l3.4,0.9c0.2,0.1,0.4,0,0.4-0.2c0-0.2-0.1-0.3-0.4-0.4l-2.4-0.6
		l2-0.6c0.2-0.1,0.2-0.2,0.1-0.4c-0.1-0.2-0.4-0.2-0.6-0.2l-2.8,0.9L406.8,411.9L406.8,411.9z M405.7,409c-0.2-0.1-0.4,0-0.4,0.2
		c0,0.2,0.1,0.3,0.4,0.4l2.4,0.6l-2,0.6c-0.2,0.1-0.2,0.2-0.1,0.4c0.1,0.2,0.4,0.2,0.6,0.2l2.8-0.9l3.4,0.9c0.2,0.1,0.4,0,0.4-0.2
		c0-0.2-0.1-0.3-0.4-0.4l-2.4-0.6l2-0.6c0.2-0.1,0.2-0.2,0.1-0.4c-0.1-0.2-0.4-0.2-0.6-0.2l-2.8,0.9L405.7,409z"/>
	<path class="st18" d="M391.3,393.4l18.2-4.9c0.9-0.2,1.9,0.3,2.1,1.2l1.6,5.8c0.3,0.9-0.3,1.9-1.2,2.1l-18.2,4.9
		c-0.9,0.3-1.9-0.3-2.1-1.2l-1.6-5.8C389.9,394.7,390.4,393.7,391.3,393.4z"/>
	<path class="st24" d="M261,342.3h163.2c4.8,0,8.8-4,8.8-8.8V187.3c0-4.8-4-8.8-8.8-8.8H261c-4.8,0-8.8,4-8.8,8.8v146.3
		C252.2,338.4,256.1,342.3,261,342.3z"/>
	<path class="st10" d="M265,189.4h152.9c3.6,0,6.6,3,6.6,6.6v35.3v66.5v14.4c0,9.4-7.7,17.1-17.1,17.1h-16.6
		c-9.4,0-19-7.9-17.1-17.1l1.6-7.8H265c-3.6,0-6.6-3-6.6-6.6V196.1C258.3,192.4,261.3,189.4,265,189.4z"/>
	<path class="st25" d="M265,192.7c-1.8,0-3.3,1.5-3.3,3.3v8.4v4.3v8.4c0,1.8,1.5,3.3,3.3,3.3h152.9c1.8,0,3.3-1.5,3.3-3.3v-8.4v-4.3
		v-8.4c0-1.8-1.5-3.3-3.3-3.3H265z"/>
	<path class="st6" d="M278.9,295.2v0.2h106.5c2.9,0.7,5,3.3,5,6.4v10.5c0,9.4,7.7,17.1,17.1,17.1h-3.1h-14H388H261.8l0,0
		c-9.4,0-17.1-7.7-17.1-17.1v-10.5c0-3.6,3-6.6,6.6-6.6H278.9z"/>
	<path class="st26" d="M266.1,225.2h17.2c2.5,0,4.5,2,4.5,4.5v17.2c0,2.5-2,4.5-4.5,4.5h-17.2c-2.5,0-4.5-2-4.5-4.5v-17.2
		C261.6,227.3,263.6,225.2,266.1,225.2z"/>
	<path class="st27" d="M299.5,225.2h17.2c2.5,0,4.5,2,4.5,4.5v17.2c0,2.5-2,4.5-4.5,4.5h-17.2c-2.5,0-4.5-2-4.5-4.5v-17.2
		C295,227.3,297,225.2,299.5,225.2z"/>
	<path class="st28" d="M332.8,225.2H350c2.5,0,4.5,2,4.5,4.5v17.2c0,2.5-2,4.5-4.5,4.5h-17.2c-2.5,0-4.5-2-4.5-4.5v-17.2
		C328.3,227.3,330.4,225.2,332.8,225.2z"/>
	<path class="st27" d="M366.2,225.2h17.2c2.5,0,4.5,2,4.5,4.5v17.2c0,2.5-2,4.5-4.5,4.5h-17.2c-2.5,0-4.5-2-4.5-4.5v-17.2
		C361.7,227.3,363.7,225.2,366.2,225.2z"/>
	<path class="st27" d="M399.6,225.2h17.2c2.5,0,4.5,2,4.5,4.5v17.2c0,2.5-2,4.5-4.5,4.5h-17.2c-2.5,0-4.5-2-4.5-4.5v-17.2
		C395.1,227.3,397.1,225.2,399.6,225.2z"/>
	<path class="st27" d="M266.1,257.9h17.2c2.5,0,4.5,2,4.5,4.5v17.2c0,2.5-2,4.5-4.5,4.5h-17.2c-2.5,0-4.5-2-4.5-4.5v-17.2
		C261.6,259.9,263.6,257.9,266.1,257.9z"/>
	<path class="st27" d="M299.5,257.9h17.2c2.5,0,4.5,2,4.5,4.5v17.2c0,2.5-2,4.5-4.5,4.5h-17.2c-2.5,0-4.5-2-4.5-4.5v-17.2
		C295,259.9,297,257.9,299.5,257.9z"/>
	<path class="st29" d="M408.7,198.9c2.1,0,3.8,1.7,3.8,3.8c0,2.1-1.7,3.8-3.8,3.8c-2.1,0-3.8-1.7-3.8-3.8
		C404.9,200.6,406.6,198.9,408.7,198.9z"/>
	<path class="st30" d="M408.7,200.7c1.1,0,2,0.9,2,2c0,1.1-0.9,2-2,2c-2.5,0-4.7-1-6.3-2.6c-1.6-1.6-2.6-3.9-2.6-6.3v-17.6
		c0-2.5,1-4.7,2.6-6.3c1.6-1.6,3.9-2.6,6.3-2.6c2.5,0,4.7,1,6.3,2.6c1.6,1.6,2.6,3.9,2.6,6.3v0.3h-4v-0.3c0-1.4-0.6-2.6-1.4-3.5
		c-0.9-0.9-2.1-1.4-3.5-1.4c-1.4,0-2.6,0.6-3.5,1.4c-0.9,0.9-1.4,2.1-1.4,3.5v17.6c0,1.4,0.6,2.6,1.4,3.5
		C406.1,200.1,407.3,200.7,408.7,200.7z"/>
	<path class="st26" d="M332.8,257.9H350c2.5,0,4.5,2,4.5,4.5v17.2c0,2.5-2,4.5-4.5,4.5h-17.2c-2.5,0-4.5-2-4.5-4.5v-17.2
		C328.3,259.9,330.4,257.9,332.8,257.9z"/>
	<path class="st27" d="M366.2,257.9h17.2c2.5,0,4.5,2,4.5,4.5v17.2c0,2.5-2,4.5-4.5,4.5h-17.2c-2.5,0-4.5-2-4.5-4.5v-17.2
		C361.7,259.9,363.7,257.9,366.2,257.9z"/>
	<path class="st27" d="M399.6,257.9h17.2c2.5,0,4.5,2,4.5,4.5v17.2c0,2.5-2,4.5-4.5,4.5h-17.2c-2.5,0-4.5-2-4.5-4.5v-17.2
		C395.1,259.9,397.1,257.9,399.6,257.9z"/>
	<path class="st29" d="M278.8,198.9c2.1,0,3.8,1.7,3.8,3.8c0,2.1-1.7,3.8-3.8,3.8c-2.1,0-3.8-1.7-3.8-3.8
		C275.1,200.6,276.7,198.9,278.8,198.9z"/>
	<path class="st30" d="M278.8,200.7c1.1,0,2,0.9,2,2c0,1.1-0.9,2-2,2c-2.5,0-4.7-1-6.3-2.6c-1.6-1.6-2.6-3.9-2.6-6.3v-17.6
		c0-2.5,1-4.7,2.6-6.3c1.6-1.6,3.9-2.6,6.3-2.6c2.5,0,4.7,1,6.3,2.6c1.6,1.6,2.6,3.9,2.6,6.3v0.3h-4v-0.3c0-1.4-0.6-2.6-1.4-3.5
		c-0.9-0.9-2.1-1.4-3.5-1.4c-1.4,0-2.6,0.6-3.5,1.4c-0.9,0.9-1.4,2.1-1.4,3.5v17.6c0,1.4,0.6,2.6,1.4,3.5
		C276.2,200.1,277.5,200.7,278.8,200.7z"/>
	<g>
		<path class="st20" d="M332.1,99.4c-0.1,0-0.3,0-0.4,0.1l0,0l0,0c-2.6,0.6-4.5,2.8-4.5,5.6c0,3.2,2.5,5.8,5.7,5.8
			c3.2,0,5.8-2.5,5.8-5.7c0-1.8-0.8-3.5-2.2-4.5c0.2,1.7-0.1,3.8-2.2,4l0-3.3C334.3,100,333,99.4,332.1,99.4z"/>
		<path class="st20" d="M373.6,98.9c0.1,0,0.3,0,0.4,0.1l0,0l0,0c2.6,0.5,4.5,2.7,4.6,5.5c0.1,3.2-2.4,5.8-5.6,5.9
			c-3.2,0.1-5.8-2.4-5.9-5.6c-0.1-1.8,0.8-3.5,2.1-4.6c-0.1,1.7,0.2,3.8,2.3,4l-0.1-3.3C371.4,99.5,372.7,98.9,373.6,98.9z"/>
	</g>
	<path class="st19" d="M352.5,70.5L352.5,70.5c-10.8,0.1-19.6,9.1-19.4,19.9l0.2,17.9c0.1,10.8,9.1,19.6,19.9,19.4l0,0
		c10.8-0.1,19.6-9.1,19.4-19.9l-0.2-17.9C372.3,79.1,363.3,70.3,352.5,70.5z"/>
	<path class="st31" d="M353.2,127.7c10.8-0.1,19.6-9.1,19.4-19.9l-0.2-17.9c-0.1-7-3.9-13.1-9.4-16.5c-10.2,0.3-19,0.7-19.8,0.7
		c-1.8,0-9,13.1-9,13.1l2.8,3.2c0,0,9.8,0,12.1,0c2.3,0,3.3,2,5.4,2c2.1,0,6.2,0,7.9,0c1.7,0,4.1,1.5,4.1,5.8c0,4.3,2.4,6.3,2.4,6.3
		s0,3.8,0,6.7C369,114,366.8,124.1,353.2,127.7z"/>
	<path class="st8" d="M340.2,86.5c-1,0.8-1.7,2-1.7,3.8c0.1,4.2-0.7,7.6-3.4,7.6c0,0,0,1.5,0,3.3c0,1.9-0.1,3.7-1.9,3.8
		c-0.1-4-1.3-5.5-1.3-5.5s-0.1-5.3-0.1-10c-0.1-4.7,1.2-11,7.2-15.3c7.9-5.7,18.9-5.8,26.9-0.3c6.2,4.2,7.6,10.5,7.6,15.1
		c0.1,4.7,0.1,10,0.1,10s-1.2,1.6-1.1,5.6c-1.8,0-2-1.9-2-3.7c0-1.9,0-3.3,0-3.3c-2.7,0-3.5-3.3-3.6-7.5c0-1.8-0.8-3-1.8-3.8
		c1.4,2.5,0.7,4.4-2.7,1.4c2.3,4.3-5.4,4.4-7.8,0.3c0,0-0.6,2.3-1.8,1.9c-1.2-0.4-1.3-3.1-1.3-3.1c-1.9,4-7.4,4.5-7.8,0.2
		C342.3,89.4,338.9,89.3,340.2,86.5z"/>
	<path class="st23" d="M340.2,86.5c-0.2,0.2-0.4,0.4-0.6,0.6v0c-0.8,0.8-2.4,1.1-3.3-0.5c-0.7-1.1-1.1-5.6-1.3-8.3
		c1-1.5,2.4-2.9,4.1-4.2c7.9-5.7,18.9-5.8,26.9-0.3c2.4,1.7,4.1,3.6,5.3,5.7c0.4,3.7-2.8,8.8-3.5,9c-0.6,0.2-1.3-0.6-1.3-0.6l0,0
		c-0.3-0.7-0.8-1.3-1.4-1.7c1.4,2.5,0.7,4.4-2.7,1.4c2.3,4.3-5.4,4.4-7.8,0.3c0,0-0.6,2.3-1.8,1.9c-1.2-0.4-1.3-3.1-1.3-3.1
		c-1.9,4-7.4,4.5-7.8,0.2C342.3,89.4,338.9,89.3,340.2,86.5z"/>
	<path class="st9" d="M336.3,76.6c0.8-0.9,1.7-1.7,2.8-2.5c0.6-0.5,1.3-0.9,2-1.3c2.6,10.2,23,6.4,26.9,2.5c0.5,0.5,1,0.9,1.4,1.4
		C359.8,84,341.6,85.9,336.3,76.6z"/>
	<path class="st19" d="M380.2,234.9c-2.7,1.8-0.2,1.3-2.5,3.2c-1.2,0.9-5.7,2.1-6.3,3c-0.6,0.9-3.8,5.2-4.6,6.3
		c-0.8,1,1.9,1.3,3.5,0.8c0,0-3.3,6.9-4.1,8.6c-0.8,1.7,0.6,2.1,1.7,1.7c1.2-0.5,3.7-5,3.7-5s2.3,0.8,3.6,0.3c0,0,2.5,0.8,3.3,0.7
		c0.8-0.1,1.9-0.5,1.9-0.5s2,0.1,3.6-1c1.6-1,2.5-9.7,2.8-10.4c0.3-0.7-0.4-3-0.4-3L380.2,234.9z"/>
	<path class="st31" d="M378.9,236c-0.3,0.6,0.4,0.8-1.2,2.1c-0.4,0.3-1.1,0.6-1.9,0.9c4.6,4.7,7,5.3,8.7,5.9
		c0.6,0.2,1.1,1.1,1.4,2.3c0.4-2.2,0.7-4.3,0.8-4.6c0.3-0.7-0.4-3-0.4-3l-4.4-3.4C380.9,236,379.9,236,378.9,236z"/>
	<path class="st9" d="M381.9,135.2c0,0,5.7,4.9,8,7.2c2.3,2.3,4.6,7.7,7,16.5c10.4,38.5,11,50.2-8.4,85.3c0,0-0.2,0.6-1.3,0.4
		c-1.2-0.2-10.7-5-11.3-7.3c0,0-0.3-0.7,0.5-1.8c8.5-12.4,11.3-44.7,4.5-59.8C378.5,170.3,374.8,149.5,381.9,135.2z"/>
	<g>
		<path class="st6" d="M285.6,90.3h3.4c0.6,0,1.1,0.5,1.1,1.1v3.4c0,0.6-0.5,1.1-1.1,1.1h-3.4c-0.6,0-1.1-0.5-1.1-1.1v-3.4
			C284.4,90.8,284.9,90.3,285.6,90.3z"/>
		<path class="st6" d="M297,90.3h3.4c0.6,0,1.1,0.5,1.1,1.1v3.4c0,0.6-0.5,1.1-1.1,1.1H297c-0.6,0-1.1-0.5-1.1-1.1v-3.4
			C295.9,90.8,296.4,90.3,297,90.3z"/>
		<path class="st6" d="M308.5,90.3h3.4c0.6,0,1.1,0.5,1.1,1.1v3.4c0,0.6-0.5,1.1-1.1,1.1h-3.4c-0.6,0-1.1-0.5-1.1-1.1v-3.4
			C307.4,90.8,307.9,90.3,308.5,90.3z"/>
		<path class="st6" d="M319.9,90.3h3.4c0.6,0,1.1,0.5,1.1,1.1v3.4c0,0.6-0.5,1.1-1.1,1.1h-3.4c-0.6,0-1.1-0.5-1.1-1.1v-3.4
			C318.8,90.8,319.3,90.3,319.9,90.3z"/>
	</g>
	<path class="st6" d="M449.5,370.4c0-0.7,0.6-1.3,1.3-1.3c0.7,0,1.3,0.6,1.3,1.3v5.8c0,0.7-0.6,1.3-1.3,1.3c-0.7,0-1.3-0.6-1.3-1.3
		V370.4L449.5,370.4z M440.8,375.1c-0.5-0.5-0.5-1.3,0-1.8c0.5-0.5,1.3-0.5,1.8,0l4.1,4.1c0.5,0.5,0.5,1.3,0,1.8
		c-0.5,0.5-1.3,0.5-1.8,0L440.8,375.1L440.8,375.1z M437.9,384.6c-0.7,0-1.3-0.6-1.3-1.3c0-0.7,0.6-1.3,1.3-1.3h5.8
		c0.7,0,1.3,0.6,1.3,1.3c0,0.7-0.6,1.3-1.3,1.3H437.9L437.9,384.6z M442.6,393.4c-0.5,0.5-1.3,0.5-1.8,0c-0.5-0.5-0.5-1.3,0-1.8
		l4.1-4.1c0.5-0.5,1.3-0.5,1.8,0c0.5,0.5,0.5,1.3,0,1.8L442.6,393.4L442.6,393.4z M452.1,396.3c0,0.7-0.6,1.3-1.3,1.3
		c-0.7,0-1.3-0.6-1.3-1.3v-5.8c0-0.7,0.6-1.3,1.3-1.3c0.7,0,1.3,0.6,1.3,1.3V396.3L452.1,396.3z M460.9,391.6c0.5,0.5,0.5,1.3,0,1.8
		c-0.5,0.5-1.3,0.5-1.8,0l-4.1-4.1c-0.5-0.5-0.5-1.3,0-1.8c0.5-0.5,1.3-0.5,1.8,0L460.9,391.6L460.9,391.6z M463.8,382.1
		c0.7,0,1.3,0.6,1.3,1.3c0,0.7-0.6,1.3-1.3,1.3H458c-0.7,0-1.3-0.6-1.3-1.3c0-0.7,0.6-1.3,1.3-1.3H463.8L463.8,382.1z M459.1,373.3
		c0.5-0.5,1.3-0.5,1.8,0c0.5,0.5,0.5,1.3,0,1.8l-4.1,4.1c-0.5,0.5-1.3,0.5-1.8,0c-0.5-0.5-0.5-1.3,0-1.8L459.1,373.3z"/>
	<g>
		<path class="st32" d="M420.6,297.2h38.3c5.5,0,10.1,4.5,10.1,10.1v38.3c0,5.5-4.5,10.1-10.1,10.1h-38.3c-5.5,0-10.1-4.5-10.1-10.1
			v-38.3C410.6,301.7,415.1,297.2,420.6,297.2z"/>
		<path class="st10" d="M439.2,318.3c0,1.8-0.5,3.3-1.5,4.6c-1,1.3-2.4,2.2-4.3,2.8v0.1c4.4,0.6,6.5,2.9,6.5,6.8
			c0,2.7-1,4.8-2.9,6.3c-1.9,1.5-4.6,2.3-8,2.3c-1.4,0-2.7-0.1-3.9-0.3c-1.2-0.2-2.5-0.6-3.9-1.2v-6.5c1.1,0.6,2.3,1.1,3.5,1.4
			c1.2,0.3,2.3,0.5,3.3,0.5c1.6,0,2.7-0.2,3.4-0.7c0.7-0.5,1.1-1.2,1.1-2.3c0-0.8-0.2-1.4-0.5-1.8c-0.4-0.4-1-0.7-1.8-1
			c-0.8-0.2-1.9-0.3-3.2-0.3h-1.6v-5.8h1.6c3.6,0,5.4-1,5.4-3c0-0.8-0.3-1.3-0.8-1.7c-0.5-0.4-1.2-0.6-2.1-0.6
			c-1.7,0-3.4,0.6-5.2,1.8l-2.9-5.2c1.4-1,2.8-1.8,4.2-2.2c1.4-0.4,3.1-0.7,5-0.7c2.7,0,4.8,0.6,6.4,1.8
			C438.4,314.5,439.2,316.2,439.2,318.3L439.2,318.3z M458.3,340.8h-7.2v-15.2c0-1.9,0-3.5,0.1-5.1c-0.4,0.6-1,1.2-1.6,1.8l-3,2.7
			l-3.7-5l9-8.1h6.4V340.8z"/>
	</g>
	<path class="st6" d="M70.7,174.1c1.7,0,3-1.4,3-3c0-1.7-1.4-3-3-3c-1.7,0-3,1.4-3,3C67.7,172.7,69,174.1,70.7,174.1z"/>
	<path class="st6" d="M171.6,72.1c1.7,0,3-1.4,3-3c0-1.7-1.4-3-3-3c-1.7,0-3,1.4-3,3C168.6,70.8,170,72.1,171.6,72.1z"/>
	<path class="st6" d="M482,46c1.7,0,3-1.4,3-3c0-1.7-1.4-3-3-3c-1.7,0-3,1.4-3,3C478.9,44.7,480.3,46,482,46z"/>
	<path class="st6" d="M672.8,161.5c1.7,0,3-1.4,3-3c0-1.7-1.4-3-3-3c-1.7,0-3,1.4-3,3C669.8,160.2,671.1,161.5,672.8,161.5z"/>
	<path class="st6" d="M684.8,392.5c1.7,0,3-1.4,3-3c0-1.7-1.4-3-3-3c-1.7,0-3,1.4-3,3C681.8,391.2,683.2,392.5,684.8,392.5z"/>
	<path class="st6" d="M459.9,206.7c1.7,0,3-1.4,3-3c0-1.7-1.4-3-3-3c-1.7,0-3,1.4-3,3C456.9,205.4,458.2,206.7,459.9,206.7z"/>
	<path class="st6" d="M224.9,312.2c1.7,0,3-1.4,3-3c0-1.7-1.4-3-3-3c-1.7,0-3,1.4-3,3C221.8,310.8,223.2,312.2,224.9,312.2z"/>
	<path class="st6" d="M102.3,392.5c1.7,0,3-1.4,3-3c0-1.7-1.4-3-3-3c-1.7,0-3,1.4-3,3C99.3,391.2,100.7,392.5,102.3,392.5z"/>
	<path class="st6" d="M43.1,371.4c1.7,0,3-1.4,3-3c0-1.7-1.4-3-3-3c-1.7,0-3,1.4-3,3C40.1,370.1,41.4,371.4,43.1,371.4z"/>
	<path class="st6" d="M552.3,74.1c1.7,0,3-1.4,3-3c0-1.7-1.4-3-3-3s-3,1.4-3,3C549.2,72.8,550.6,74.1,552.3,74.1z"/>
</g>
<g id="DESIGNED_BY_FREEPIK">
</g>
</svg>
